<svg width="51" height="10" viewBox="0 0 51 10" fill="none" xmlns="http://www.w3.org/2000/svg">
<path d="M11.439 0.55V0.758H10.36V8.792H11.439V9H8.059V8.792H9.008V1.356H8.93L6.421 8.883H6.369C6.11767 8.883 5.91833 8.792 5.771 8.61C5.63233 8.428 5.50233 8.168 5.381 7.83L2.95 1.356H2.885V7.141C2.885 7.77367 3.002 8.207 3.236 8.441C3.47867 8.675 3.91633 8.792 4.549 8.792H4.64V9H0.922V8.792C1.55467 8.792 1.99667 8.675 2.248 8.441C2.49933 8.19833 2.625 7.765 2.625 7.141V1.278C2.60767 1.07 2.52533 0.931333 2.378 0.861999C2.23933 0.783999 2.04 0.744999 1.78 0.744999H1.195V0.55H4.146L6.629 7.232H6.707L8.93 0.55H11.439ZM13.9834 7.076C13.8881 7.336 13.8404 7.59167 13.8404 7.843C13.8404 8.08567 13.8838 8.272 13.9704 8.402C14.0658 8.532 14.2131 8.623 14.4124 8.675C14.7158 8.753 15.1188 8.792 15.6214 8.792H15.8424V9H11.9944V8.792C12.4538 8.792 12.8004 8.66633 13.0344 8.415C13.2771 8.155 13.4894 7.752 13.6714 7.206L15.7904 1.083C15.8511 0.892333 15.9074 0.749333 15.9594 0.654C16.0808 0.411333 16.2801 0.29 16.5574 0.29H16.5964L19.2224 8.792H20.1454V9H16.8174V8.792H17.7794L16.8824 5.854H14.3994L13.9834 7.076ZM15.6734 2.162L14.4774 5.646H16.8174L15.7514 2.162H15.6734ZM22.1051 9V8.792H23.0541V0.758C22.2568 0.758 21.6674 0.888 21.2861 1.148C20.9741 1.34733 20.7618 1.798 20.6491 2.5C20.6058 2.77733 20.5711 3.15867 20.5451 3.644H20.3371L20.4671 0.55H26.9931L27.1231 3.644H26.9151C26.8718 2.786 26.7808 2.18367 26.6421 1.837C26.5121 1.49033 26.3561 1.26067 26.1741 1.148C25.7928 0.888 25.2034 0.758 24.4061 0.758V8.792H25.4851V9H22.1051ZM30.5958 9.013C31.1332 9.013 31.5578 8.85267 31.8698 8.532C32.1818 8.21133 32.3378 7.80833 32.3378 7.323C32.3378 6.829 32.1818 6.43467 31.8698 6.14C31.5578 5.84533 31.1808 5.61133 30.7388 5.438C30.2968 5.256 29.8548 5.06533 29.4128 4.866C28.9708 4.66667 28.5938 4.38067 28.2818 4.008C27.9698 3.63533 27.8138 3.176 27.8138 2.63C27.8138 1.89333 28.0305 1.32133 28.4638 0.913999C28.8972 0.498 29.4865 0.29 30.2318 0.29C30.6218 0.29 31.0595 0.363666 31.5448 0.510999C32.0302 0.658333 32.3118 0.732 32.3898 0.732C32.6412 0.732 32.7885 0.584666 32.8318 0.29H32.9878V3.137H32.7798C32.6498 2.34833 32.3855 1.72 31.9868 1.252C31.5882 0.775333 31.0422 0.537 30.3488 0.537C29.8808 0.537 29.5038 0.675666 29.2178 0.953C28.9405 1.22167 28.8018 1.58567 28.8018 2.045C28.8018 2.49567 28.9578 2.86833 29.2698 3.163C29.5818 3.45767 29.9588 3.696 30.4008 3.878C30.8428 4.05133 31.2848 4.23767 31.7268 4.437C32.1688 4.63633 32.5458 4.92233 32.8578 5.295C33.1698 5.66767 33.3258 6.127 33.3258 6.673C33.3258 7.44433 33.0528 8.06833 32.5068 8.545C31.9608 9.02167 31.2805 9.26 30.4658 9.26C30.0672 9.26 29.6425 9.18633 29.1918 9.039C28.7498 8.89167 28.4898 8.818 28.4118 8.818C28.1605 8.818 28.0132 8.96533 27.9698 9.26H27.8138L27.6838 6.075H27.8918C28.1518 8.03367 29.0532 9.013 30.5958 9.013ZM34.4426 9V8.792H35.3916V0.758H34.4426V0.55H40.6956V3.254H40.4876C40.4876 2.20533 40.3229 1.52933 39.9936 1.226C39.6729 0.914 38.9796 0.758 37.9136 0.758H36.7436V4.489H37.4326C38.0566 4.489 38.4856 4.372 38.7196 4.138C38.9536 3.89533 39.0706 3.45767 39.0706 2.825H39.2916V6.4H39.0706C39.0706 5.75867 38.9536 5.31667 38.7196 5.074C38.4856 4.82267 38.0566 4.697 37.4326 4.697H36.7436V8.792H37.7966C38.4553 8.792 38.9623 8.75733 39.3176 8.688C39.6729 8.61867 39.9633 8.467 40.1886 8.233C40.4139 7.999 40.5613 7.70867 40.6306 7.362C40.7086 7.00667 40.7649 6.491 40.7996 5.815H41.0076L40.8776 9H34.4426ZM48.7964 2.409V9.091H48.5884C48.3024 9.091 48.0684 9 47.8864 8.818C47.7131 8.636 47.4791 8.28933 47.1844 7.778L43.7524 1.876H43.7004V7.141C43.7004 7.77367 43.8174 8.207 44.0514 8.441C44.2941 8.675 44.7318 8.792 45.3644 8.792H45.4554V9H41.7374V8.792C42.3701 8.792 42.8121 8.675 43.0634 8.441C43.3148 8.19833 43.4404 7.765 43.4404 7.141V1.343C43.2064 0.944333 42.7514 0.744999 42.0754 0.744999V0.55H43.4274C43.8434 0.55 44.1554 0.623666 44.3634 0.771C44.5801 0.909666 44.7968 1.161 45.0134 1.525L48.4584 7.44H48.5364V2.409C48.5364 1.77633 48.4151 1.343 48.1724 1.109C47.9384 0.875 47.5051 0.758 46.8724 0.758H46.7814V0.55H50.4994V0.758C49.8668 0.758 49.4248 0.879333 49.1734 1.122C48.9221 1.356 48.7964 1.785 48.7964 2.409Z" fill="black"/>
</svg>
