<svg width="55" height="19" viewBox="0 0 55 19" fill="none" xmlns="http://www.w3.org/2000/svg">
<path d="M1.58691 2.75781H3.00879L5.68115 9.88623L8.34717 2.75781H9.76904L6.23975 12H5.10986L1.58691 2.75781ZM0.939453 2.75781H2.2915L2.52637 8.92773V12H0.939453V2.75781ZM9.06445 2.75781H10.4229V12H8.82959V8.92773L9.06445 2.75781ZM16.0278 3.98926L13.2666 12H11.5972L15.0757 2.75781H16.1421L16.0278 3.98926ZM18.3384 12L15.5708 3.98926L15.4502 2.75781H16.5229L20.0142 12H18.3384ZM18.2051 8.57227V9.83545H13.1777V8.57227H18.2051ZM24.0513 2.75781V12H22.4707V2.75781H24.0513ZM26.9521 2.75781V4.02734H19.5952V2.75781H26.9521ZM32.9316 9.61963C32.9316 9.4292 32.902 9.25993 32.8428 9.11182C32.7878 8.9637 32.6883 8.82829 32.5444 8.70557C32.4006 8.58285 32.1974 8.46436 31.9351 8.3501C31.6769 8.23161 31.3468 8.111 30.9448 7.98828C30.5047 7.85286 30.0985 7.70264 29.7261 7.5376C29.3579 7.36833 29.0363 7.17367 28.7612 6.95361C28.4862 6.72933 28.2725 6.47331 28.1201 6.18555C27.9678 5.89355 27.8916 5.55713 27.8916 5.17627C27.8916 4.79964 27.9699 4.45687 28.1265 4.14795C28.2873 3.83903 28.5137 3.57243 28.8057 3.34814C29.1019 3.11963 29.451 2.94401 29.853 2.82129C30.255 2.69434 30.6994 2.63086 31.186 2.63086C31.8716 2.63086 32.4619 2.75781 32.957 3.01172C33.4564 3.26562 33.8394 3.60628 34.106 4.03369C34.3768 4.4611 34.5122 4.93294 34.5122 5.44922H32.9316C32.9316 5.14453 32.866 4.87581 32.7349 4.64307C32.6079 4.40609 32.4132 4.21989 32.1509 4.08447C31.8927 3.94906 31.5648 3.88135 31.167 3.88135C30.7904 3.88135 30.4772 3.93848 30.2275 4.05273C29.9779 4.16699 29.7917 4.32145 29.6689 4.51611C29.5462 4.71077 29.4849 4.93083 29.4849 5.17627C29.4849 5.34977 29.5251 5.50846 29.6055 5.65234C29.6859 5.79199 29.8086 5.92318 29.9736 6.0459C30.1387 6.16439 30.346 6.27653 30.5957 6.38232C30.8454 6.48812 31.1395 6.58968 31.478 6.68701C31.9901 6.83936 32.4365 7.00863 32.8174 7.19482C33.1982 7.37679 33.5156 7.58415 33.7695 7.81689C34.0234 8.04964 34.2139 8.31413 34.3408 8.61035C34.4678 8.90234 34.5312 9.23454 34.5312 9.60693C34.5312 9.99626 34.453 10.3475 34.2964 10.6606C34.1398 10.9696 33.9155 11.234 33.6235 11.4541C33.3358 11.6699 32.9888 11.8371 32.5825 11.9556C32.1805 12.0698 31.7319 12.127 31.2368 12.127C30.7925 12.127 30.3545 12.0677 29.9229 11.9492C29.4954 11.8307 29.1061 11.6509 28.7549 11.4097C28.4036 11.1642 28.1243 10.8595 27.917 10.4956C27.7096 10.1274 27.606 9.69792 27.606 9.20703H29.1992C29.1992 9.50749 29.25 9.76351 29.3516 9.9751C29.4574 10.1867 29.6034 10.3602 29.7896 10.4956C29.9757 10.6268 30.1916 10.7241 30.437 10.7876C30.6867 10.8511 30.9533 10.8828 31.2368 10.8828C31.6092 10.8828 31.9202 10.8299 32.1699 10.7241C32.4238 10.6183 32.6143 10.4702 32.7412 10.2798C32.8682 10.0894 32.9316 9.8693 32.9316 9.61963ZM41.9897 10.7368V12H37.083V10.7368H41.9897ZM37.5337 2.75781V12H35.9404V2.75781H37.5337ZM41.3486 6.61719V7.86133H37.083V6.61719H41.3486ZM41.958 2.75781V4.02734H37.083V2.75781H41.958ZM50.6226 2.75781V12H49.0293L44.8843 5.37939V12H43.291V2.75781H44.8843L49.042 9.39111V2.75781H50.6226Z" fill="#131313"/>
<path d="M0.795898 14.8662V18.0156H0.341797V14.3584H0.756836L0.795898 14.8662ZM2.57568 15.6572V15.7085C2.57568 15.9006 2.5529 16.0788 2.50732 16.2432C2.46175 16.4059 2.39502 16.5475 2.30713 16.668C2.22087 16.7884 2.11426 16.882 1.9873 16.9487C1.86035 17.0155 1.71468 17.0488 1.55029 17.0488C1.38265 17.0488 1.23454 17.0212 1.10596 16.9658C0.977376 16.9105 0.868327 16.8299 0.778809 16.7241C0.68929 16.6183 0.617676 16.4914 0.563965 16.3433C0.511882 16.1951 0.476074 16.0283 0.456543 15.8428V15.5693C0.476074 15.374 0.512695 15.1991 0.566406 15.0444C0.620117 14.8898 0.690918 14.758 0.778809 14.6489C0.868327 14.5382 0.976562 14.4544 1.10352 14.3975C1.23047 14.3389 1.37695 14.3096 1.54297 14.3096C1.70898 14.3096 1.85628 14.3421 1.98486 14.4072C2.11344 14.4707 2.22168 14.5618 2.30957 14.6807C2.39746 14.7995 2.46338 14.9419 2.50732 15.1079C2.5529 15.2723 2.57568 15.4554 2.57568 15.6572ZM2.12158 15.7085V15.6572C2.12158 15.5254 2.10775 15.4017 2.08008 15.2861C2.05241 15.1689 2.00928 15.0664 1.95068 14.9785C1.89372 14.889 1.82048 14.819 1.73096 14.7686C1.64144 14.7165 1.53483 14.6904 1.41113 14.6904C1.2972 14.6904 1.19792 14.71 1.11328 14.749C1.03027 14.7881 0.959473 14.841 0.900879 14.9077C0.842285 14.9728 0.794271 15.0477 0.756836 15.1323C0.721029 15.2153 0.694173 15.3016 0.67627 15.3911V16.0234C0.708822 16.1374 0.754395 16.2448 0.812988 16.3457C0.871582 16.445 0.949707 16.5256 1.04736 16.5874C1.14502 16.6476 1.2679 16.6777 1.41602 16.6777C1.53809 16.6777 1.64307 16.6525 1.73096 16.6021C1.82048 16.55 1.89372 16.4792 1.95068 16.3896C2.00928 16.3001 2.05241 16.1976 2.08008 16.082C2.10775 15.9648 2.12158 15.8403 2.12158 15.7085ZM6.95352 14.7734V17H6.50186V14.3584H6.94131L6.95352 14.7734ZM7.77871 14.3438L7.77627 14.7637C7.73883 14.7555 7.70303 14.7507 7.66885 14.749C7.6363 14.7458 7.59886 14.7441 7.55654 14.7441C7.45238 14.7441 7.36042 14.7604 7.28066 14.793C7.20091 14.8255 7.13337 14.8711 7.07803 14.9297C7.02269 14.9883 6.97874 15.0583 6.94619 15.1396C6.91527 15.2194 6.89492 15.3073 6.88516 15.4033L6.7582 15.4766C6.7582 15.3171 6.77367 15.1673 6.80459 15.0273C6.83714 14.8874 6.88678 14.7637 6.95352 14.6562C7.02025 14.5472 7.10488 14.4626 7.20742 14.4023C7.31159 14.3405 7.43529 14.3096 7.57852 14.3096C7.61107 14.3096 7.6485 14.3136 7.69082 14.3218C7.73314 14.3283 7.76243 14.3356 7.77871 14.3438ZM11.3777 15.7085V15.6523C11.3777 15.4619 11.4054 15.2853 11.4607 15.1226C11.5161 14.9582 11.5958 14.8158 11.7 14.6953C11.8042 14.5732 11.9303 14.4788 12.0784 14.4121C12.2265 14.3438 12.3925 14.3096 12.5765 14.3096C12.762 14.3096 12.9288 14.3438 13.077 14.4121C13.2267 14.4788 13.3536 14.5732 13.4578 14.6953C13.5636 14.8158 13.6442 14.9582 13.6995 15.1226C13.7549 15.2853 13.7825 15.4619 13.7825 15.6523V15.7085C13.7825 15.8989 13.7549 16.0755 13.6995 16.2383C13.6442 16.401 13.5636 16.5435 13.4578 16.6655C13.3536 16.786 13.2275 16.8804 13.0794 16.9487C12.9329 17.0155 12.7669 17.0488 12.5813 17.0488C12.3958 17.0488 12.229 17.0155 12.0809 16.9487C11.9327 16.8804 11.8058 16.786 11.7 16.6655C11.5958 16.5435 11.5161 16.401 11.4607 16.2383C11.4054 16.0755 11.3777 15.8989 11.3777 15.7085ZM11.8294 15.6523V15.7085C11.8294 15.8403 11.8449 15.9648 11.8758 16.082C11.9067 16.1976 11.9531 16.3001 12.0149 16.3896C12.0784 16.4792 12.1574 16.55 12.2518 16.6021C12.3462 16.6525 12.456 16.6777 12.5813 16.6777C12.705 16.6777 12.8133 16.6525 12.9061 16.6021C13.0005 16.55 13.0786 16.4792 13.1404 16.3896C13.2023 16.3001 13.2487 16.1976 13.2796 16.082C13.3121 15.9648 13.3284 15.8403 13.3284 15.7085V15.6523C13.3284 15.5221 13.3121 15.3993 13.2796 15.2837C13.2487 15.1665 13.2015 15.0632 13.138 14.9736C13.0761 14.8825 12.998 14.8109 12.9036 14.7588C12.8108 14.7067 12.7018 14.6807 12.5765 14.6807C12.4528 14.6807 12.3437 14.7067 12.2493 14.7588C12.1565 14.8109 12.0784 14.8825 12.0149 14.9736C11.9531 15.0632 11.9067 15.1665 11.8758 15.2837C11.8449 15.3993 11.8294 15.5221 11.8294 15.6523ZM19.364 16.4873V13.25H19.8181V17H19.403L19.364 16.4873ZM17.5866 15.7085V15.6572C17.5866 15.4554 17.611 15.2723 17.6599 15.1079C17.7103 14.9419 17.7811 14.7995 17.8723 14.6807C17.965 14.5618 18.0749 14.4707 18.2019 14.4072C18.3304 14.3421 18.4737 14.3096 18.6315 14.3096C18.7976 14.3096 18.9424 14.3389 19.0661 14.3975C19.1914 14.4544 19.2972 14.5382 19.3835 14.6489C19.4714 14.758 19.5406 14.8898 19.591 15.0444C19.6415 15.1991 19.6765 15.374 19.696 15.5693V15.7939C19.6781 15.9876 19.6431 16.1618 19.591 16.3164C19.5406 16.471 19.4714 16.6029 19.3835 16.7119C19.2972 16.821 19.1914 16.9048 19.0661 16.9634C18.9408 17.0203 18.7943 17.0488 18.6267 17.0488C18.472 17.0488 18.3304 17.0155 18.2019 16.9487C18.0749 16.882 17.965 16.7884 17.8723 16.668C17.7811 16.5475 17.7103 16.4059 17.6599 16.2432C17.611 16.0788 17.5866 15.9006 17.5866 15.7085ZM18.0407 15.6572V15.7085C18.0407 15.8403 18.0537 15.964 18.0798 16.0796C18.1075 16.1951 18.1498 16.2969 18.2067 16.3848C18.2637 16.4727 18.3361 16.5418 18.424 16.5923C18.5119 16.6411 18.6169 16.6655 18.739 16.6655C18.8887 16.6655 19.0116 16.6338 19.1076 16.5703C19.2053 16.5068 19.2834 16.423 19.342 16.3188C19.4006 16.2147 19.4462 16.1016 19.4787 15.9795V15.3911C19.4592 15.3016 19.4307 15.2153 19.3933 15.1323C19.3575 15.0477 19.3103 14.9728 19.2517 14.9077C19.1947 14.841 19.1239 14.7881 19.0393 14.749C18.9562 14.71 18.8578 14.6904 18.7438 14.6904C18.6201 14.6904 18.5135 14.7165 18.424 14.7686C18.3361 14.819 18.2637 14.889 18.2067 14.9785C18.1498 15.0664 18.1075 15.1689 18.0798 15.2861C18.0537 15.4017 18.0407 15.5254 18.0407 15.6572ZM25.4874 16.3896V14.3584H25.9415V17H25.5094L25.4874 16.3896ZM25.5729 15.833L25.7608 15.8281C25.7608 16.0039 25.7421 16.1667 25.7047 16.3164C25.6689 16.4645 25.6103 16.5931 25.5289 16.7021C25.4475 16.8112 25.3409 16.8966 25.2091 16.9585C25.0772 17.0187 24.9169 17.0488 24.7281 17.0488C24.5995 17.0488 24.4815 17.0301 24.3741 16.9927C24.2683 16.9552 24.1772 16.8975 24.1007 16.8193C24.0242 16.7412 23.9648 16.6395 23.9225 16.5142C23.8818 16.3888 23.8614 16.2383 23.8614 16.0625V14.3584H24.3131V16.0674C24.3131 16.1862 24.3261 16.2847 24.3521 16.3628C24.3798 16.4393 24.4164 16.5003 24.462 16.5459C24.5092 16.5898 24.5613 16.6208 24.6183 16.6387C24.6769 16.6566 24.7371 16.6655 24.7989 16.6655C24.991 16.6655 25.1432 16.6289 25.2555 16.5557C25.3678 16.4808 25.4483 16.3807 25.4972 16.2554C25.5476 16.1284 25.5729 15.9876 25.5729 15.833ZM31.0371 16.6777C31.1445 16.6777 31.2438 16.6558 31.335 16.6118C31.4261 16.5679 31.501 16.5076 31.5596 16.4312C31.6182 16.353 31.6515 16.2643 31.6597 16.165H32.0894C32.0812 16.3213 32.0283 16.467 31.9307 16.6021C31.8346 16.7355 31.7085 16.8438 31.5522 16.9268C31.396 17.0081 31.2243 17.0488 31.0371 17.0488C30.8385 17.0488 30.6652 17.0138 30.5171 16.9438C30.3706 16.8739 30.2485 16.7778 30.1509 16.6558C30.0549 16.5337 29.9824 16.3937 29.9336 16.2358C29.8864 16.0763 29.8628 15.9079 29.8628 15.7305V15.6279C29.8628 15.4505 29.8864 15.2829 29.9336 15.125C29.9824 14.9655 30.0549 14.8247 30.1509 14.7026C30.2485 14.5806 30.3706 14.4845 30.5171 14.4146C30.6652 14.3446 30.8385 14.3096 31.0371 14.3096C31.2438 14.3096 31.4245 14.3519 31.5791 14.4365C31.7337 14.5195 31.855 14.6335 31.9429 14.7783C32.0324 14.9215 32.0812 15.0843 32.0894 15.2666H31.6597C31.6515 15.1576 31.6206 15.0591 31.5669 14.9712C31.5148 14.8833 31.4432 14.8133 31.3521 14.7612C31.2625 14.7075 31.1576 14.6807 31.0371 14.6807C30.8988 14.6807 30.7824 14.7083 30.688 14.7637C30.5952 14.8174 30.5212 14.8906 30.4658 14.9834C30.4121 15.0745 30.373 15.1763 30.3486 15.2886C30.3258 15.3993 30.3145 15.5124 30.3145 15.6279V15.7305C30.3145 15.846 30.3258 15.96 30.3486 16.0723C30.3714 16.1846 30.4097 16.2863 30.4634 16.3774C30.5187 16.4686 30.5928 16.5418 30.6855 16.5972C30.7799 16.6509 30.8971 16.6777 31.0371 16.6777ZM37.0531 14.3584V14.7051H35.6249V14.3584H37.0531ZM36.1083 13.7163H36.56V16.3457C36.56 16.4352 36.5738 16.5028 36.6015 16.5483C36.6291 16.5939 36.6649 16.624 36.7089 16.6387C36.7528 16.6533 36.8 16.6606 36.8505 16.6606C36.8879 16.6606 36.927 16.6574 36.9677 16.6509C37.01 16.6427 37.0417 16.6362 37.0629 16.6313L37.0653 17C37.0295 17.0114 36.9823 17.022 36.9237 17.0317C36.8668 17.0431 36.7976 17.0488 36.7162 17.0488C36.6055 17.0488 36.5038 17.0269 36.411 16.9829C36.3183 16.939 36.2442 16.8657 36.1889 16.7632C36.1352 16.659 36.1083 16.519 36.1083 16.3433V13.7163ZM41.4236 14.3584V17H40.9695V14.3584H41.4236ZM40.9354 13.6577C40.9354 13.5845 40.9573 13.5226 41.0013 13.4722C41.0468 13.4217 41.1136 13.3965 41.2015 13.3965C41.2877 13.3965 41.3536 13.4217 41.3992 13.4722C41.4464 13.5226 41.47 13.5845 41.47 13.6577C41.47 13.7277 41.4464 13.7879 41.3992 13.8384C41.3536 13.8872 41.2877 13.9116 41.2015 13.9116C41.1136 13.9116 41.0468 13.8872 41.0013 13.8384C40.9573 13.7879 40.9354 13.7277 40.9354 13.6577ZM45.3791 15.7085V15.6523C45.3791 15.4619 45.4068 15.2853 45.4621 15.1226C45.5174 14.9582 45.5972 14.8158 45.7014 14.6953C45.8055 14.5732 45.9317 14.4788 46.0798 14.4121C46.2279 14.3438 46.3939 14.3096 46.5778 14.3096C46.7634 14.3096 46.9302 14.3438 47.0783 14.4121C47.2281 14.4788 47.355 14.5732 47.4592 14.6953C47.565 14.8158 47.6455 14.9582 47.7009 15.1226C47.7562 15.2853 47.7839 15.4619 47.7839 15.6523V15.7085C47.7839 15.8989 47.7562 16.0755 47.7009 16.2383C47.6455 16.401 47.565 16.5435 47.4592 16.6655C47.355 16.786 47.2289 16.8804 47.0808 16.9487C46.9343 17.0155 46.7683 17.0488 46.5827 17.0488C46.3972 17.0488 46.2303 17.0155 46.0822 16.9487C45.9341 16.8804 45.8072 16.786 45.7014 16.6655C45.5972 16.5435 45.5174 16.401 45.4621 16.2383C45.4068 16.0755 45.3791 15.8989 45.3791 15.7085ZM45.8308 15.6523V15.7085C45.8308 15.8403 45.8462 15.9648 45.8771 16.082C45.9081 16.1976 45.9545 16.3001 46.0163 16.3896C46.0798 16.4792 46.1587 16.55 46.2531 16.6021C46.3475 16.6525 46.4574 16.6777 46.5827 16.6777C46.7064 16.6777 46.8146 16.6525 46.9074 16.6021C47.0018 16.55 47.0799 16.4792 47.1418 16.3896C47.2036 16.3001 47.25 16.1976 47.281 16.082C47.3135 15.9648 47.3298 15.8403 47.3298 15.7085V15.6523C47.3298 15.5221 47.3135 15.3993 47.281 15.2837C47.25 15.1665 47.2028 15.0632 47.1394 14.9736C47.0775 14.8825 46.9994 14.8109 46.905 14.7588C46.8122 14.7067 46.7032 14.6807 46.5778 14.6807C46.4541 14.6807 46.3451 14.7067 46.2507 14.7588C46.1579 14.8109 46.0798 14.8825 46.0163 14.9736C45.9545 15.0632 45.9081 15.1665 45.8771 15.2837C45.8462 15.3993 45.8308 15.5221 45.8308 15.6523ZM52.152 14.9224V17H51.7003V14.3584H52.1275L52.152 14.9224ZM52.0445 15.5791L51.8565 15.5718C51.8582 15.3911 51.885 15.2243 51.9371 15.0713C51.9892 14.9167 52.0624 14.7824 52.1568 14.6685C52.2512 14.5545 52.3635 14.4666 52.4937 14.4048C52.6256 14.3413 52.7713 14.3096 52.9308 14.3096C53.061 14.3096 53.1782 14.3275 53.2823 14.3633C53.3865 14.3975 53.4752 14.4528 53.5484 14.5293C53.6233 14.6058 53.6803 14.7051 53.7193 14.8271C53.7584 14.9476 53.7779 15.0949 53.7779 15.269V17H53.3238V15.2642C53.3238 15.1258 53.3035 15.0151 53.2628 14.9321C53.2221 14.8475 53.1627 14.7865 53.0846 14.749C53.0064 14.71 52.9104 14.6904 52.7965 14.6904C52.6842 14.6904 52.5816 14.714 52.4889 14.7612C52.3977 14.8084 52.3188 14.8735 52.252 14.9565C52.1869 15.0396 52.1357 15.1348 52.0982 15.2422C52.0624 15.348 52.0445 15.4603 52.0445 15.5791Z" fill="#131313"/>
</svg>
