<svg width="14" height="14" viewBox="0 0 14 14" fill="none" xmlns="http://www.w3.org/2000/svg">
<path d="M7.75225 1.72273C7.75225 1.53105 7.67323 1.34722 7.53258 1.21168C7.39193 1.07614 7.20116 1 7.00225 1C6.80334 1 6.61257 1.07614 6.47192 1.21168C6.33127 1.34722 6.25225 1.53105 6.25225 1.72273L6.25 7.50676C6.25 7.69844 6.32902 7.88227 6.46967 8.01781C6.61032 8.15335 6.80109 8.22949 7 8.22949C7.19891 8.22949 7.38968 8.15335 7.53033 8.01781C7.67098 7.88227 7.75 7.69844 7.75 7.50676L7.75225 1.72346V1.72273Z" fill="#EC4F4F"/>
<path d="M1 8.2174C1 6.62017 1.67125 5.1747 2.75725 4.12891L3.81775 5.15085C3.18838 5.75729 2.75977 6.52997 2.58611 7.37115C2.41246 8.21234 2.50155 9.08426 2.84214 9.87665C3.18272 10.669 3.7595 11.3463 4.49953 11.8228C5.23956 12.2993 6.1096 12.5536 6.99963 12.5536C7.88965 12.5536 8.75969 12.2993 9.49972 11.8228C10.2397 11.3463 10.8165 10.669 11.1571 9.87665C11.4977 9.08426 11.5868 8.21234 11.4131 7.37115C11.2395 6.52997 10.8109 5.75729 10.1815 5.15085L11.2427 4.12891C11.9404 4.80125 12.4553 5.62903 12.7417 6.53891C13.0281 7.44879 13.0772 8.41269 12.8847 9.34524C12.6922 10.2778 12.264 11.1502 11.6381 11.8852C11.0121 12.6202 10.2077 13.1951 9.29613 13.5589C8.38455 13.9228 7.39392 14.0644 6.41198 13.9712C5.43004 13.878 4.4871 13.5529 3.66668 13.0247C2.84627 12.4965 2.1737 11.7814 1.70855 10.9429C1.24341 10.1044 1.00004 9.16822 1 8.2174V8.2174Z" fill="#EC4F4F"/>
</svg>
