<svg width="30" height="30" viewBox="0 0 30 30" fill="none" xmlns="http://www.w3.org/2000/svg">
<rect width="30" height="30" fill="white"/>
<path d="M3.60367 4.22653L14.4888 18.0071C14.68 18.2491 14.9355 18.3838 15.2007 18.3824C15.4659 18.381 15.7199 18.2436 15.9085 17.9996L26.6525 4.10554C26.7405 3.99187 26.8102 3.85615 26.8575 3.70639C26.9047 3.55662 26.9287 3.39585 26.9278 3.23357C26.9269 3.07129 26.9013 2.91078 26.8525 2.76152C26.8036 2.61226 26.7325 2.47728 26.6434 2.36454C26.4605 2.13258 26.216 2.00347 25.9621 2.00481C25.7082 2.00614 25.4651 2.13781 25.2847 2.37167L15.1852 15.4372L4.95118 2.4784C4.76843 2.24725 4.52435 2.11864 4.27095 2.11997C4.01755 2.1213 3.77484 2.25246 3.59453 2.48553C3.50656 2.5992 3.43687 2.73492 3.38959 2.88469C3.34231 3.03445 3.31839 3.19522 3.31924 3.3575C3.3201 3.51978 3.3457 3.68029 3.39455 3.82955C3.4434 3.97881 3.51451 4.11379 3.60367 4.22653Z" fill="black"/>
<rect x="3" y="2.00391" width="2" height="24" rx="1" fill="black"/>
<rect x="25" y="2.00391" width="2" height="24" rx="1" fill="black"/>
<rect x="20" y="20" width="2" height="10" rx="1" transform="rotate(90 20 20)" fill="black"/>
<rect width="1.99713" height="4.99396" rx="0.998564" transform="matrix(-0.705553 0.708657 -0.696237 -0.717812 18.7002 24.585)" fill="black"/>
<rect width="1.99758" height="4.99282" rx="0.998791" transform="matrix(0.696237 0.717812 -0.705553 0.708657 15.2227 21.001)" fill="black"/>
</svg>
